# xmcd
#
# Track frame offsets:
# 150
# 12390
# 26712
# 41338
# 58390
# 68786
# 80033
# 95540
# 107561
# 119942
# 134064
# 143318
# 153613
# 165269
# 181096
#
# Disc length: 2552 seconds
#
#
# Revision: 0
# Processed by: cddbd v1.5.1PL2 Copyright (c) Steve Scherf et al.
# Submitted via: FreeRIP 2.944 
#
DISCID=cf09f60f
DTITLE=les gilliam - reflections of live
DYEAR=1900
DGENRE=western
TTITLE0=oklahoma hills
TTITLE1=lucky
TTITLE2=the masters call
TTITLE3=man walks among
TTITLE4=jenny
TTITLE5=rawhide and bluejay
TTITLE6=shenandoah
TTITLE7=waltz across texas
TTITLE8=I wonder where you are tonight
TTITLE9=no one will ever know
TTITLE10=your name is mudd
TTITLE11=yours love
TTITLE12=Im my own grandpa
TTITLE13=soldiers last letter
TTITLE14=this ole house
EXTD=
EXTT0=
EXTT1=
EXTT2=
EXTT3=
EXTT4=
EXTT5=
EXTT6=
EXTT7=
EXTT8=
EXTT9=
EXTT10=
EXTT11=
EXTT12=
EXTT13=
EXTT14=
PLAYORDER=
